<svg width="57" height="46" viewBox="0 0 57 46" fill="none" xmlns="http://www.w3.org/2000/svg">
<path d="M25.5205 4.34375C25.5205 2.05859 27.3662 0.125 29.7393 0.125H38.1768C40.4619 0.125 42.3955 2.05859 42.3955 4.34375V17H45.9111V10.6719C45.9111 9.5293 46.79 8.5625 48.0205 8.5625C49.1631 8.5625 50.1299 9.5293 50.1299 10.6719V17H52.2393C54.5244 17 56.458 18.9336 56.458 21.2188V40.9062C56.458 43.2793 54.5244 45.125 52.2393 45.125H29.7393C27.3662 45.125 25.5205 43.2793 25.5205 40.9062V4.34375ZM31.1455 9.96875C31.1455 10.7598 31.7607 11.375 32.5518 11.375H35.3643C36.0674 11.375 36.7705 10.7598 36.7705 9.96875V7.15625C36.7705 6.45312 36.0674 5.75 35.3643 5.75H32.5518C31.7607 5.75 31.1455 6.45312 31.1455 7.15625V9.96875ZM32.5518 14.1875C31.7607 14.1875 31.1455 14.8906 31.1455 15.5938V18.4062C31.1455 19.1973 31.7607 19.8125 32.5518 19.8125H35.3643C36.0674 19.8125 36.7705 19.1973 36.7705 18.4062V15.5938C36.7705 14.8906 36.0674 14.1875 35.3643 14.1875H32.5518ZM31.1455 26.8438C31.1455 27.6348 31.7607 28.25 32.5518 28.25H35.3643C36.0674 28.25 36.7705 27.6348 36.7705 26.8438V24.0312C36.7705 23.3281 36.0674 22.625 35.3643 22.625H32.5518C31.7607 22.625 31.1455 23.3281 31.1455 24.0312V26.8438ZM46.6143 22.625C45.8232 22.625 45.208 23.3281 45.208 24.0312V26.8438C45.208 27.6348 45.8232 28.25 46.6143 28.25H49.4268C50.1299 28.25 50.833 27.6348 50.833 26.8438V24.0312C50.833 23.3281 50.1299 22.625 49.4268 22.625H46.6143ZM45.208 35.2812C45.208 36.0723 45.8232 36.6875 46.6143 36.6875H49.4268C50.1299 36.6875 50.833 36.0723 50.833 35.2812V32.4688C50.833 31.7656 50.1299 31.0625 49.4268 31.0625H46.6143C45.8232 31.0625 45.208 31.7656 45.208 32.4688V35.2812ZM19.8955 14.1875C19.8955 14.7148 19.8076 15.1543 19.7197 15.5938C21.4775 16.8242 22.708 18.9336 22.708 21.2188C22.708 25.1738 19.5439 28.25 15.6768 28.25H14.2705V42.3125C14.2705 43.8945 12.9521 45.125 11.458 45.125C9.87598 45.125 8.64551 43.8945 8.64551 42.3125V28.25H7.23926C3.28418 28.25 0.208008 25.1738 0.208008 21.2188C0.208008 18.9336 1.35059 16.8242 3.1084 15.5938C3.02051 15.1543 3.02051 14.7148 3.02051 14.1875C3.02051 9.5293 6.71191 5.75 11.458 5.75C16.1162 5.75 19.8955 9.5293 19.8955 14.1875Z" fill="#005D79"/>
</svg>
