<svg width="43" height="46" viewBox="0 0 43 46" fill="none" xmlns="http://www.w3.org/2000/svg">
<path d="M21.6665 0.125C22.0181 0.125 22.4575 0.300781 22.8091 0.388672L39.3325 7.41992C41.2661 8.29883 42.7603 10.1445 42.7603 12.4297C42.6724 21.2188 39.0688 37.127 23.9517 44.4219C22.4575 45.125 20.7876 45.125 19.2935 44.4219C4.17627 37.127 0.572754 21.2188 0.484863 12.4297C0.484863 10.1445 1.979 8.29883 3.9126 7.41992L20.436 0.388672C20.7876 0.300781 21.2271 0.125 21.6665 0.125ZM21.6665 39.2363C33.7075 33.3477 37.0474 20.4277 37.1353 12.6055L21.6665 6.01367V39.2363Z" fill="#005D79"/>
</svg>
