<svg width="46" height="46" viewBox="0 0 46 46" fill="none" xmlns="http://www.w3.org/2000/svg">
<path d="M42.6875 0.625C44.1816 0.625 45.5 1.94336 45.5 3.4375C45.5 5.01953 44.1816 6.25 42.6875 6.25V40C44.1816 40 45.5 41.3184 45.5 42.8125C45.5 44.3945 44.1816 45.625 42.6875 45.625H27.2188V40H18.7812V45.625H3.3125C1.73047 45.625 0.5 44.3945 0.5 42.8125C0.5 41.3184 1.73047 40 3.3125 40V6.25C1.73047 6.25 0.5 5.01953 0.5 3.4375C0.5 1.94336 1.73047 0.625 3.3125 0.625H42.6875ZM10.3438 9.0625C9.55273 9.0625 8.9375 9.76562 8.9375 10.4688V13.2812C8.9375 14.0723 9.55273 14.6875 10.3438 14.6875H13.1562C13.8594 14.6875 14.5625 14.0723 14.5625 13.2812V10.4688C14.5625 9.76562 13.8594 9.0625 13.1562 9.0625H10.3438ZM20.1875 13.2812C20.1875 14.0723 20.8027 14.6875 21.5938 14.6875H24.4062C25.1094 14.6875 25.8125 14.0723 25.8125 13.2812V10.4688C25.8125 9.76562 25.1094 9.0625 24.4062 9.0625H21.5938C20.8027 9.0625 20.1875 9.76562 20.1875 10.4688V13.2812ZM32.8438 9.0625C32.0527 9.0625 31.4375 9.76562 31.4375 10.4688V13.2812C31.4375 14.0723 32.0527 14.6875 32.8438 14.6875H35.6562C36.3594 14.6875 37.0625 14.0723 37.0625 13.2812V10.4688C37.0625 9.76562 36.3594 9.0625 35.6562 9.0625H32.8438ZM8.9375 21.7188C8.9375 22.5098 9.55273 23.125 10.3438 23.125H13.1562C13.8594 23.125 14.5625 22.5098 14.5625 21.7188V18.9062C14.5625 18.2031 13.8594 17.5 13.1562 17.5H10.3438C9.55273 17.5 8.9375 18.2031 8.9375 18.9062V21.7188ZM21.5938 17.5C20.8027 17.5 20.1875 18.2031 20.1875 18.9062V21.7188C20.1875 22.5098 20.8027 23.125 21.5938 23.125H24.4062C25.1094 23.125 25.8125 22.5098 25.8125 21.7188V18.9062C25.8125 18.2031 25.1094 17.5 24.4062 17.5H21.5938ZM31.4375 21.7188C31.4375 22.5098 32.0527 23.125 32.8438 23.125H35.6562C36.3594 23.125 37.0625 22.5098 37.0625 21.7188V18.9062C37.0625 18.2031 36.3594 17.5 35.6562 17.5H32.8438C32.0527 17.5 31.4375 18.2031 31.4375 18.9062V21.7188ZM23 25.9375C19.0449 25.9375 15.7051 28.6621 14.7383 32.3535C14.4746 33.4961 15.4414 34.375 16.6719 34.375H29.3281C30.4707 34.375 31.4375 33.4961 31.1738 32.3535C30.207 28.6621 26.8672 25.9375 23 25.9375Z" fill="#005D79"/>
</svg>
